<?xml version="1.0" encoding="UTF-8"?>
<svg id="Layer_1" xmlns="http://www.w3.org/2000/svg" version="1.1" xmlns:xlink="http://www.w3.org/1999/xlink" viewBox="0 0 24 24">
  <!-- Generator: Adobe Illustrator 30.4.0, SVG Export Plug-In . SVG Version: 2.1.4 Build 226)  -->
  <defs>
    <style>
      .st0 {
        fill: #fff;
      }

      .st1 {
        fill: url(#linear-gradient);
      }

      .st2 {
        fill: #39f;
      }
    </style>
    <linearGradient id="linear-gradient" x1="17" y1="22.7" x2="7" y2="1.4" gradientUnits="userSpaceOnUse">
      <stop offset="0" stop-color="#00ffeb"/>
      <stop offset=".3" stop-color="#007aff"/>
      <stop offset=".8" stop-color="#5a42b7"/>
    </linearGradient>
  </defs>
  <path class="st1" d="M20.7,18.8l-7.2,4.1c-1,.6-2.1.6-3.1,0l-7.2-4.1c-1-.6-1.6-1.6-1.6-2.7V7.9c0-1.1.6-2.1,1.6-2.7L10.4,1c1-.6,2.1-.6,3.1,0l7.2,4.1c1,.6,1.6,1.6,1.6,2.7v8.3c0,1.1-.6,2.1-1.6,2.7h0Z"/>
  <path class="st2" d="M12,24c-.6,0-1.2-.2-1.8-.5l-7.3-4.2c-1.1-.6-1.8-1.8-1.8-3.1V7.8c0-1.3.7-2.4,1.8-3.1L10.2.5c.5-.3,1.2-.5,1.8-.5s1.2.2,1.8.5l7.8,4.5h0c.8.7,1.3,1.7,1.3,2.8v8.4c0,1.3-.7,2.4-1.8,3.1l-7.3,4.2c-.5.3-1.2.5-1.8.5ZM12,1.5c-.4,0-.9.1-1.3.3l-6.9,4c-.8.5-1.3,1.3-1.3,2.2v8c0,.9.5,1.8,1.3,2.2l6.9,4c.4.2.8.3,1.3.3s.9-.1,1.3-.3l6.9-4c.8-.5,1.3-1.3,1.3-2.2v-8c0-.9-.5-1.8-1.3-2.2l-6.9-4c-.4-.2-.8-.3-1.3-.3Z"/>
  <path class="st0" d="M11.7,19.1c-1,0-1.8-.4-2.3-.6-.9-.4-1.5-1-1.9-1.4l1.3-1.5c.3.3.7.7,1.3,1.1.5.3.9.5,1.5.5.9,0,1.4-.6,1.5-.7.4-.6.4-1.6.4-2.6v-.3h-2.8v-1.2h2.8v-1.4h-2.8v-1.4h2.8v-1.5c0-.2-.2-.4-.4-.4h-4.3v-2h6.5c.2,0,.4.2.4.4v3.6h1.5v1.4h-1.5v.4s0,1,0,1h1.5v1.2h-1.5v.6c0,1.6-.2,3.4-1.6,4.3-.9.6-2,.6-2.3.6Z"/>
</svg>